<svg xmlns="http://www.w3.org/2000/svg" width="960" height="620" viewBox="0 0 960 620">
  <rect width="960" height="620" fill="#f1f5f9"/>

  <!-- Sidebar -->
  <rect x="0" y="0" width="200" height="620" fill="#1e293b"/>
  <rect x="16" y="16" width="32" height="32" rx="7" fill="#3b82f6"/>
  <text x="32" y="37" text-anchor="middle" font-family="Arial, sans-serif" font-size="15" font-weight="bold" fill="white">E</text>
  <text x="58" y="30" font-family="Arial, sans-serif" font-size="12" font-weight="bold" fill="white">Eco-Biz</text>
  <text x="58" y="44" font-family="Arial, sans-serif" font-size="10" fill="#64748b">Connect</text>
  <text x="36" y="103" font-family="Arial, sans-serif" font-size="11" fill="#94a3b8">  Dashboard</text>
  <rect x="10" y="110" width="180" height="34" rx="6" fill="#3b82f6"/>
  <text x="36" y="131" font-family="Arial, sans-serif" font-size="12" font-weight="bold" fill="white">■ Marketplace</text>
  <text x="36" y="158" font-family="Arial, sans-serif" font-size="11" fill="#94a3b8">  Portfolio</text>
  <text x="36" y="184" font-family="Arial, sans-serif" font-size="11" fill="#94a3b8">  Dividends</text>
  <text x="36" y="210" font-family="Arial, sans-serif" font-size="11" fill="#94a3b8">  Transactions</text>

  <!-- Top bar -->
  <rect x="200" y="0" width="760" height="52" fill="white" stroke="#e2e8f0" stroke-width="1"/>
  <text x="220" y="20" font-family="Arial, sans-serif" font-size="11" fill="#64748b">Investment Marketplace</text>
  <text x="220" y="38" font-family="Arial, sans-serif" font-size="16" font-weight="bold" fill="#1e293b">Carbon-Neutral STO Products</text>
  <!-- Search -->
  <rect x="680" y="12" width="200" height="28" rx="14" fill="#f1f5f9" stroke="#e2e8f0" stroke-width="1"/>
  <text x="700" y="30" font-family="Arial, sans-serif" font-size="11" fill="#9ca3af">🔍  Search products...</text>

  <!-- Filter sidebar -->
  <rect x="206" y="60" width="160" height="480" rx="8" fill="white" stroke="#e2e8f0" stroke-width="1"/>
  <text x="220" y="82" font-family="Arial, sans-serif" font-size="12" font-weight="bold" fill="#1e293b">Filter</text>
  <line x1="216" y1="90" x2="356" y2="90" stroke="#e2e8f0" stroke-width="1"/>

  <text x="220" y="108" font-family="Arial, sans-serif" font-size="10" font-weight="bold" fill="#374151">Asset Type</text>
  <rect x="220" y="116" width="10" height="10" rx="2" fill="#3b82f6"/>
  <text x="236" y="125" font-family="Arial, sans-serif" font-size="10" fill="#374151">Solar Power</text>
  <rect x="220" y="132" width="10" height="10" rx="2" fill="white" stroke="#d1d5db" stroke-width="1"/>
  <text x="236" y="141" font-family="Arial, sans-serif" font-size="10" fill="#374151">Wind Power</text>
  <rect x="220" y="148" width="10" height="10" rx="2" fill="white" stroke="#d1d5db" stroke-width="1"/>
  <text x="236" y="157" font-family="Arial, sans-serif" font-size="10" fill="#374151">Carbon Forest</text>

  <text x="220" y="178" font-family="Arial, sans-serif" font-size="10" font-weight="bold" fill="#374151">Expected Yield</text>
  <text x="220" y="194" font-family="Arial, sans-serif" font-size="10" fill="#9ca3af">Min 3.0%</text>
  <rect x="220" y="200" width="120" height="4" rx="2" fill="#e2e8f0"/>
  <rect x="220" y="200" width="80" height="4" rx="2" fill="#3b82f6"/>
  <circle cx="300" cy="202" r="6" fill="white" stroke="#3b82f6" stroke-width="2"/>
  <text x="220" y="218" font-family="Arial, sans-serif" font-size="10" fill="#64748b">3.0% — 10.0%</text>

  <text x="220" y="238" font-family="Arial, sans-serif" font-size="10" font-weight="bold" fill="#374151">Token Price</text>
  <text x="220" y="254" font-family="Arial, sans-serif" font-size="10" fill="#64748b">₩5,000 — ₩100,000</text>

  <rect x="220" y="268" width="120" height="28" rx="6" fill="#3b82f6"/>
  <text x="280" y="286" text-anchor="middle" font-family="Arial, sans-serif" font-size="11" font-weight="bold" fill="white">Apply Filter</text>

  <!-- Product cards grid -->
  <!-- Card 1 -->
  <rect x="378" y="60" width="252" height="230" rx="8" fill="white" stroke="#e2e8f0" stroke-width="1"/>
  <!-- image placeholder -->
  <rect x="378" y="60" width="252" height="100" rx="8" fill="#fef9c3"/>
  <rect x="378" y="140" width="252" height="20" fill="#fef9c3"/>
  <text x="504" y="118" text-anchor="middle" font-family="Arial, sans-serif" font-size="28" fill="#f59e0b">☀</text>
  <text x="504" y="136" text-anchor="middle" font-family="Arial, sans-serif" font-size="11" fill="#92400e">Solar Power — Gyeongju</text>
  <!-- badge -->
  <rect x="388" y="68" width="60" height="18" rx="9" fill="#fbbf24"/>
  <text x="418" y="80" text-anchor="middle" font-family="Arial, sans-serif" font-size="9" font-weight="bold" fill="#78350f">SOLAR</text>
  <!-- content -->
  <text x="392" y="178" font-family="Arial, sans-serif" font-size="12" font-weight="bold" fill="#1e293b">Gyeongju Solar Farm No.3</text>
  <text x="392" y="196" font-family="Arial, sans-serif" font-size="10" fill="#64748b">Expected Annual Yield</text>
  <text x="392" y="212" font-family="Arial, sans-serif" font-size="18" font-weight="bold" fill="#059669">6.2%</text>
  <text x="484" y="212" font-family="Arial, sans-serif" font-size="10" fill="#64748b">per annum</text>
  <text x="392" y="228" font-family="Arial, sans-serif" font-size="10" fill="#64748b">Token price: ₩10,000  |  CO₂: 42 ton/yr</text>
  <!-- progress -->
  <text x="392" y="244" font-family="Arial, sans-serif" font-size="9" fill="#64748b">Tokens remaining: 1,250 / 5,000</text>
  <rect x="392" y="248" width="200" height="6" rx="3" fill="#e2e8f0"/>
  <rect x="392" y="248" width="50" height="6" rx="3" fill="#3b82f6"/>
  <rect x="392" y="264" width="96" height="24" rx="6" fill="#3b82f6"/>
  <text x="440" y="280" text-anchor="middle" font-family="Arial, sans-serif" font-size="11" font-weight="bold" fill="white">Buy Tokens</text>
  <rect x="498" y="264" width="96" height="24" rx="6" fill="white" stroke="#d1d5db" stroke-width="1"/>
  <text x="546" y="280" text-anchor="middle" font-family="Arial, sans-serif" font-size="11" fill="#374151">Compare ☐</text>

  <!-- Card 2 -->
  <rect x="644" y="60" width="252" height="230" rx="8" fill="white" stroke="#e2e8f0" stroke-width="1"/>
  <rect x="644" y="60" width="252" height="100" rx="8" fill="#dbeafe"/>
  <rect x="644" y="140" width="252" height="20" fill="#dbeafe"/>
  <text x="770" y="118" text-anchor="middle" font-family="Arial, sans-serif" font-size="28" fill="#3b82f6">💨</text>
  <text x="770" y="136" text-anchor="middle" font-family="Arial, sans-serif" font-size="11" fill="#1e40af">Wind Power — Pohang Offshore</text>
  <rect x="654" y="68" width="60" height="18" rx="9" fill="#3b82f6"/>
  <text x="684" y="80" text-anchor="middle" font-family="Arial, sans-serif" font-size="9" font-weight="bold" fill="white">WIND</text>
  <text x="658" y="178" font-family="Arial, sans-serif" font-size="12" font-weight="bold" fill="#1e293b">Pohang Offshore Wind Zone 1</text>
  <text x="658" y="196" font-family="Arial, sans-serif" font-size="10" fill="#64748b">Expected Annual Yield</text>
  <text x="658" y="212" font-family="Arial, sans-serif" font-size="18" font-weight="bold" fill="#059669">7.5%</text>
  <text x="750" y="212" font-family="Arial, sans-serif" font-size="10" fill="#64748b">per annum</text>
  <text x="658" y="228" font-family="Arial, sans-serif" font-size="10" fill="#64748b">Token price: ₩50,000  |  CO₂: 120 ton/yr</text>
  <text x="658" y="244" font-family="Arial, sans-serif" font-size="9" fill="#ef4444">Tokens remaining: 380 / 2,000 — Closing Soon!</text>
  <rect x="658" y="248" width="200" height="6" rx="3" fill="#e2e8f0"/>
  <rect x="658" y="248" width="190" height="6" rx="3" fill="#ef4444"/>
  <rect x="658" y="264" width="96" height="24" rx="6" fill="#3b82f6"/>
  <text x="706" y="280" text-anchor="middle" font-family="Arial, sans-serif" font-size="11" font-weight="bold" fill="white">Buy Tokens</text>
  <rect x="764" y="264" width="96" height="24" rx="6" fill="white" stroke="#d1d5db" stroke-width="1"/>
  <text x="812" y="280" text-anchor="middle" font-family="Arial, sans-serif" font-size="11" fill="#374151">Compare ☐</text>

  <!-- Card 3 (Forest) -->
  <rect x="378" y="304" width="252" height="230" rx="8" fill="white" stroke="#e2e8f0" stroke-width="1"/>
  <rect x="378" y="304" width="252" height="100" rx="8" fill="#dcfce7"/>
  <rect x="378" y="384" width="252" height="20" fill="#dcfce7"/>
  <text x="504" y="362" text-anchor="middle" font-family="Arial, sans-serif" font-size="28" fill="#22c55e">🌿</text>
  <text x="504" y="380" text-anchor="middle" font-family="Arial, sans-serif" font-size="11" fill="#166534">Carbon Forest — Daegu Urban</text>
  <rect x="388" y="312" width="72" height="18" rx="9" fill="#22c55e"/>
  <text x="424" y="324" text-anchor="middle" font-family="Arial, sans-serif" font-size="9" font-weight="bold" fill="white">FOREST</text>
  <text x="392" y="422" font-family="Arial, sans-serif" font-size="12" font-weight="bold" fill="#1e293b">Daegu Urban Carbon Forest</text>
  <text x="392" y="440" font-family="Arial, sans-serif" font-size="10" fill="#64748b">Expected Annual Yield</text>
  <text x="392" y="456" font-family="Arial, sans-serif" font-size="18" font-weight="bold" fill="#059669">4.8%</text>
  <text x="484" y="456" font-family="Arial, sans-serif" font-size="10" fill="#64748b">per annum</text>
  <text x="392" y="472" font-family="Arial, sans-serif" font-size="10" fill="#64748b">Token price: ₩5,000  |  CO₂: 28 ton/yr</text>
  <text x="392" y="488" font-family="Arial, sans-serif" font-size="9" fill="#64748b">Tokens remaining: 3,100 / 4,000</text>
  <rect x="392" y="492" width="200" height="6" rx="3" fill="#e2e8f0"/>
  <rect x="392" y="492" width="155" height="6" rx="3" fill="#22c55e"/>
  <rect x="392" y="508" width="96" height="24" rx="6" fill="#3b82f6"/>
  <text x="440" y="524" text-anchor="middle" font-family="Arial, sans-serif" font-size="11" font-weight="bold" fill="white">Buy Tokens</text>

  <!-- Sort bar -->
  <rect x="378" y="540" width="518" height="40" rx="6" fill="white" stroke="#e2e8f0" stroke-width="1"/>
  <text x="392" y="565" font-family="Arial, sans-serif" font-size="11" fill="#64748b">Sort by:</text>
  <rect x="440" y="548" width="96" height="24" rx="12" fill="#eff6ff" stroke="#3b82f6" stroke-width="1"/>
  <text x="488" y="564" text-anchor="middle" font-family="Arial, sans-serif" font-size="10" fill="#3b82f6">Highest Yield</text>
  <rect x="546" y="548" width="88" height="24" rx="12" fill="white" stroke="#e2e8f0" stroke-width="1"/>
  <text x="590" y="564" text-anchor="middle" font-family="Arial, sans-serif" font-size="10" fill="#64748b">Lowest Price</text>
  <rect x="644" y="548" width="106" height="24" rx="12" fill="white" stroke="#e2e8f0" stroke-width="1"/>
  <text x="697" y="564" text-anchor="middle" font-family="Arial, sans-serif" font-size="10" fill="#64748b">Closing Soon</text>

  <!-- Figure label -->
  <text x="580" y="608" text-anchor="middle" font-family="Arial, sans-serif" font-size="11" fill="#94a3b8">Figure 4.3 — Investment Marketplace (Web Application)</text>
</svg>
