<svg xmlns="http://www.w3.org/2000/svg" viewBox="0 0 1195 1056" font-family="'Helvetica Neue','Segoe UI','Malgun Gothic',sans-serif">
<defs>
  <marker id="mk_sync" markerWidth="12" markerHeight="12" refX="9.5" refY="5" orient="auto" markerUnits="userSpaceOnUse">
    <path d="M0,0 L10,5 L0,10 Z" fill="#2a3340"/></marker>
  <marker id="mk_open" markerWidth="14" markerHeight="12" refX="10" refY="5" orient="auto" markerUnits="userSpaceOnUse">
    <path d="M0,0 L11,5 L0,10" fill="none" stroke="#2a3340" stroke-width="1.5"/></marker>
  <marker id="mk_ret" markerWidth="14" markerHeight="12" refX="10" refY="5" orient="auto" markerUnits="userSpaceOnUse">
    <path d="M0,0 L11,5 L0,10" fill="none" stroke="#7a5230" stroke-width="1.5"/></marker>
  <filter id="ds" x="-20%" y="-20%" width="140%" height="140%">
    <feDropShadow dx="0" dy="1.5" stdDeviation="2.2" flood-color="#1f2a37" flood-opacity="0.18"/></filter>
</defs>
<rect width="1195" height="1056" fill="#ffffff"/>
<text x="597.5" y="44" text-anchor="middle" font-size="19" font-weight="700" fill="#1f2a37" letter-spacing="0.2">Sequence Diagram — UC#10  Purchase STO Token</text>
<line x1="70" y1="60" x2="1125" y2="60" stroke="#cfd6df" stroke-width="1"/>
<rect x="64" y="76" width="1067" height="962" rx="4" fill="none" stroke="#9aa5b1" stroke-width="1.3"/>
<path d="M64,76 h225.0 l0,16 l-10,8 h-215.0 z" fill="#eef1f4" stroke="#9aa5b1" stroke-width="1.3"/>
<text x="74" y="92" font-size="11" font-weight="700" fill="#3f4f63">interaction UC#10  Purchase STO Token</text>
<line x1="160" y1="162" x2="160" y2="1026" stroke="#b6c0cc" stroke-width="1.3" stroke-dasharray="2 6" stroke-linecap="round"/>
<line x1="345" y1="162" x2="345" y2="1026" stroke="#b6c0cc" stroke-width="1.3" stroke-dasharray="2 6" stroke-linecap="round"/>
<line x1="530" y1="162" x2="530" y2="1026" stroke="#b6c0cc" stroke-width="1.3" stroke-dasharray="2 6" stroke-linecap="round"/>
<line x1="715" y1="162" x2="715" y2="1026" stroke="#b6c0cc" stroke-width="1.3" stroke-dasharray="2 6" stroke-linecap="round"/>
<line x1="900" y1="162" x2="900" y2="1026" stroke="#b6c0cc" stroke-width="1.3" stroke-dasharray="2 6" stroke-linecap="round"/>
<line x1="1085" y1="162" x2="1085" y2="1026" stroke="#b6c0cc" stroke-width="1.3" stroke-dasharray="2 6" stroke-linecap="round"/>
<rect x="88" y="508" width="1019" height="496" rx="6" fill="#ffffff" fill-opacity="0.0" stroke="#6b7f99" stroke-width="1.3"/>
<path d="M88,508 h48 l0,15 l-9,8 h-39 z" fill="#dde6f1" stroke="#6b7f99" stroke-width="1.3"/>
<text x="97" y="524" font-size="11" font-weight="700" fill="#33485f">alt</text>
<rect x="142" y="512" width="210.39999999999998" height="16" fill="#ffffff" opacity="0.92"/>
<text x="146" y="524" font-size="10.5" fill="#33485f">[payment OK &amp; contract not reverted]</text>
<line x1="88" y1="922" x2="1107" y2="922" stroke="#6b7f99" stroke-width="1" stroke-dasharray="8 5"/>
<text x="98" y="937" font-size="10.5" font-style="italic" fill="#33485f">[payment fail / revert]</text>
<rect x="339" y="290" width="12" height="52" rx="2" fill="#eef2f7" stroke="#9aa8b8" stroke-width="1" filter="url(#ds)"/>
<rect x="709" y="558" width="12" height="52" rx="2" fill="#eef2f7" stroke="#9aa8b8" stroke-width="1" filter="url(#ds)"/>
<rect x="894" y="662" width="12" height="98" rx="2" fill="#eef2f7" stroke="#9aa8b8" stroke-width="1" filter="url(#ds)"/>
<rect x="524" y="446" width="12" height="418" rx="2" fill="#eef2f7" stroke="#9aa8b8" stroke-width="1" filter="url(#ds)"/>
<rect x="339" y="394" width="12" height="602" rx="2" fill="#eef2f7" stroke="#9aa8b8" stroke-width="1" filter="url(#ds)"/>
<rect x="339" y="192" width="12" height="804" rx="2" fill="#eef2f7" stroke="#9aa8b8" stroke-width="1" filter="url(#ds)"/>
<rect x="524" y="940" width="12" height="56" rx="2" fill="#eef2f7" stroke="#9aa8b8" stroke-width="1" filter="url(#ds)"/>
<rect x="1079" y="812" width="12" height="184" rx="2" fill="#eef2f7" stroke="#9aa8b8" stroke-width="1" filter="url(#ds)"/>
<rect x="108.0" y="118" width="104" height="38" fill="#f6f8fa" stroke="#444c56" stroke-width="1.4" filter="url(#ds)"/>
<text x="160" y="141.0" text-anchor="middle" font-size="12.5" font-weight="700" fill="#1f2a37">Investor</text>
<rect x="293.0" y="118" width="104" height="38" fill="#f6f8fa" stroke="#444c56" stroke-width="1.4" filter="url(#ds)"/>
<text x="345" y="141.0" text-anchor="middle" font-size="12.5" font-weight="700" fill="#1f2a37">DetailUI</text>
<rect x="443.0" y="118" width="174" height="38" fill="#f6f8fa" stroke="#444c56" stroke-width="1.4" filter="url(#ds)"/>
<text x="530" y="141.0" text-anchor="middle" font-size="12.5" font-weight="700" fill="#1f2a37">PurchaseController</text>
<rect x="663.0" y="118" width="104" height="38" fill="#f6f8fa" stroke="#444c56" stroke-width="1.4" filter="url(#ds)"/>
<text x="715" y="141.0" text-anchor="middle" font-size="12.5" font-weight="700" fill="#1f2a37">Bank API</text>
<rect x="845.0" y="118" width="110" height="38" fill="#f6f8fa" stroke="#444c56" stroke-width="1.4" filter="url(#ds)"/>
<text x="900" y="135.0" text-anchor="middle" font-size="11" font-weight="700" fill="#1f2a37"><tspan x="900" dy="0">Blockchain</tspan><tspan x="900" dy="12">Network</tspan></text>
<rect x="1033.0" y="118" width="104" height="38" fill="#f6f8fa" stroke="#444c56" stroke-width="1.4" filter="url(#ds)"/>
<text x="1085" y="141.0" text-anchor="middle" font-size="12.5" font-weight="700" fill="#1f2a37">TxDB</text>
<line x1="166" y1="192" x2="339" y2="192" stroke="#2a3340" stroke-width="1.5"  marker-end="url(#mk_sync)"/>
<text x="252.5" y="184" text-anchor="middle" font-size="11.5" fill="#2a3340">1: input quantity</text>
<path d="M351,244 h40 v26 h-40" fill="none" stroke="#2a3340" stroke-width="1.5" marker-end="url(#mk_sync)"/>
<text x="401" y="248" font-size="11.5" fill="#2a3340">2: calc total / yield / CO2</text>
<line x1="166" y1="290" x2="339" y2="290" stroke="#2a3340" stroke-width="1.5"  marker-end="url(#mk_sync)"/>
<text x="252.5" y="282" text-anchor="middle" font-size="11.5" fill="#2a3340">3: Confirm Purchase</text>
<line x1="339" y1="342" x2="166" y2="342" stroke="#7a5230" stroke-width="1.5" stroke-dasharray="7 4" marker-end="url(#mk_ret)"/>
<text x="252.5" y="334" text-anchor="middle" font-size="11.5" fill="#7a5230">risk disclosure modal</text>
<line x1="166" y1="394" x2="339" y2="394" stroke="#2a3340" stroke-width="1.5"  marker-end="url(#mk_sync)"/>
<text x="252.5" y="386" text-anchor="middle" font-size="11.5" fill="#2a3340">4: agree &amp; Pay</text>
<line x1="351" y1="446" x2="524" y2="446" stroke="#2a3340" stroke-width="1.5"  marker-end="url(#mk_sync)"/>
<text x="437.5" y="438" text-anchor="middle" font-size="11.5" fill="#2a3340">4.1: purchase(qty)</text>
<line x1="536" y1="558" x2="709" y2="558" stroke="#2a3340" stroke-width="1.5"  marker-end="url(#mk_sync)"/>
<text x="622.5" y="550" text-anchor="middle" font-size="11.5" fill="#2a3340">5: processPayment()</text>
<line x1="709" y1="610" x2="536" y2="610" stroke="#7a5230" stroke-width="1.5" stroke-dasharray="7 4" marker-end="url(#mk_ret)"/>
<text x="622.5" y="602" text-anchor="middle" font-size="11.5" fill="#7a5230">payment confirmed</text>
<line x1="536" y1="662" x2="894" y2="662" stroke="#2a3340" stroke-width="1.5"  marker-end="url(#mk_sync)"/>
<text x="715.0" y="654" text-anchor="middle" font-size="11.5" fill="#2a3340">6: callPurchase()</text>
<path d="M906,714 h40 v26 h-40" fill="none" stroke="#2a3340" stroke-width="1.5" marker-end="url(#mk_sync)"/>
<text x="956" y="718" font-size="11.5" fill="#2a3340">7: verify, decrement, TokenTransfer</text>
<line x1="894" y1="760" x2="536" y2="760" stroke="#7a5230" stroke-width="1.5" stroke-dasharray="7 4" marker-end="url(#mk_ret)"/>
<text x="715.0" y="752" text-anchor="middle" font-size="11.5" fill="#7a5230">onChainTxHash, blockNumber</text>
<line x1="536" y1="812" x2="1079" y2="812" stroke="#2a3340" stroke-width="1.5"  marker-end="url(#mk_sync)"/>
<text x="807.5" y="804" text-anchor="middle" font-size="11.5" fill="#2a3340">8: save(txHash)</text>
<line x1="524" y1="864" x2="351" y2="864" stroke="#7a5230" stroke-width="1.5" stroke-dasharray="7 4" marker-end="url(#mk_ret)"/>
<text x="437.5" y="856" text-anchor="middle" font-size="11.5" fill="#7a5230">9: update portfolio + email</text>
<path d="M536,946 h40 v26 h-40" fill="none" stroke="#2a3340" stroke-width="1.5" marker-end="url(#mk_sync)"/>
<text x="586" y="950" font-size="11.5" fill="#2a3340">instant refund</text>
</svg>