<svg xmlns="http://www.w3.org/2000/svg" width="960" height="880" viewBox="0 0 960 880">
<rect width="960" height="880" fill="white"/>
<defs>
  <marker id="arr" viewBox="0 0 10 10" refX="9" refY="5" markerWidth="7" markerHeight="7" orient="auto-start-reverse">
    <path d="M1 1L9 5L1 9" fill="none" stroke="#555" stroke-width="1.5" stroke-linecap="round" stroke-linejoin="round"/>
  </marker>
  <marker id="arrG" viewBox="0 0 10 10" refX="9" refY="5" markerWidth="7" markerHeight="7" orient="auto-start-reverse">
    <path d="M1 1L9 5L1 9" fill="none" stroke="#999" stroke-width="1.5" stroke-linecap="round" stroke-linejoin="round"/>
  </marker>
</defs>
<text x="480" y="28" text-anchor="middle" font-family="Arial,sans-serif" font-size="15" font-weight="bold" fill="#111">EBC System — Use Case Diagram</text>
<rect x="210" y="45" width="510" height="800" rx="10" fill="none" stroke="#666" stroke-width="1.4" stroke-dasharray="9 4"/>
<text x="465" y="66" text-anchor="middle" font-family="Arial,sans-serif" font-size="12" font-weight="bold" fill="#555">Eco-Biz Connect Platform</text>
<ellipse cx="465" cy="105" rx="115" ry="22" fill="white" stroke="#333" stroke-width="1.2"/>
<text x="465" y="109" text-anchor="middle" font-family="Arial,sans-serif" font-size="11" fill="#111">#1  Register &amp; Authenticate</text>
<ellipse cx="465" cy="165" rx="75" ry="21" fill="white" stroke="#333" stroke-width="1.2"/>
<text x="465" y="169" text-anchor="middle" font-family="Arial,sans-serif" font-size="11" fill="#111">#2  Login</text>
<ellipse cx="335" cy="248" rx="108" ry="21" fill="#dbeafe" stroke="#1d6fad" stroke-width="1.2"/>
<text x="335" y="252" text-anchor="middle" font-family="Arial,sans-serif" font-size="11" fill="#1e3a5f">#3  Upload Business Data</text>
<ellipse cx="335" cy="315" rx="115" ry="21" fill="#dbeafe" stroke="#1d6fad" stroke-width="1.2"/>
<text x="335" y="319" text-anchor="middle" font-family="Arial,sans-serif" font-size="11" fill="#1e3a5f">#4  View AI Analysis Report</text>
<ellipse cx="335" cy="382" rx="112" ry="21" fill="#f0f0f0" stroke="#777" stroke-width="1.2"/>
<text x="335" y="386" text-anchor="middle" font-family="Arial,sans-serif" font-size="11" fill="#333">#5  Calculate ESG Score</text>
<ellipse cx="335" cy="449" rx="118" ry="21" fill="#dbeafe" stroke="#1d6fad" stroke-width="1.2"/>
<text x="335" y="453" text-anchor="middle" font-family="Arial,sans-serif" font-size="11" fill="#1e3a5f">#6  Match Financial Product</text>
<ellipse cx="335" cy="516" rx="120" ry="21" fill="#dbeafe" stroke="#1d6fad" stroke-width="1.2"/>
<text x="335" y="520" text-anchor="middle" font-family="Arial,sans-serif" font-size="11" fill="#1e3a5f">#7  Apply for Preferential Loan</text>
<ellipse cx="598" cy="315" rx="103" ry="21" fill="#fde8d0" stroke="#b05a10" stroke-width="1.2"/>
<text x="598" y="319" text-anchor="middle" font-family="Arial,sans-serif" font-size="11" fill="#6b3208">#8  Issue Carbon STO</text>
<ellipse cx="598" cy="382" rx="118" ry="21" fill="#d1fae5" stroke="#1a8050" stroke-width="1.2"/>
<text x="598" y="386" text-anchor="middle" font-family="Arial,sans-serif" font-size="11" fill="#14502f">#9  Browse Investment Products</text>
<ellipse cx="598" cy="449" rx="111" ry="21" fill="#d1fae5" stroke="#1a8050" stroke-width="1.2"/>
<text x="598" y="453" text-anchor="middle" font-family="Arial,sans-serif" font-size="11" fill="#14502f">#10  Purchase STO Token</text>
<ellipse cx="598" cy="516" rx="119" ry="21" fill="#d1fae5" stroke="#1a8050" stroke-width="1.2"/>
<text x="598" y="520" text-anchor="middle" font-family="Arial,sans-serif" font-size="11" fill="#14502f">#11  Check Revenue &amp; Dividend</text>
<ellipse cx="465" cy="620" rx="120" ry="21" fill="#f0f0f0" stroke="#777" stroke-width="1.2"/>
<text x="465" y="624" text-anchor="middle" font-family="Arial,sans-serif" font-size="11" fill="#333">#12  View Transaction History</text>
<ellipse cx="598" cy="700" rx="120" ry="21" fill="#fde8d0" stroke="#b05a10" stroke-width="1.2"/>
<text x="598" y="704" text-anchor="middle" font-family="Arial,sans-serif" font-size="11" fill="#6b3208">#13  Manage System &amp; Monitor</text>
<circle cx="88" cy="260" r="15" fill="white" stroke="#222" stroke-width="1.6"/>
<line x1="88" y1="275" x2="88" y2="316" stroke="#222" stroke-width="1.6"/>
<line x1="62" y1="290" x2="114" y2="290" stroke="#222" stroke-width="1.6"/>
<line x1="88" y1="316" x2="65" y2="342" stroke="#222" stroke-width="1.6"/>
<line x1="88" y1="316" x2="111" y2="342" stroke="#222" stroke-width="1.6"/>
<text x="88" y="360" text-anchor="middle" font-family="Arial,sans-serif" font-size="12" font-weight="bold" fill="#111">Merchant</text>
<text x="88" y="374" text-anchor="middle" font-family="Arial,sans-serif" font-size="10" fill="#555">(소상공인)</text>
<circle cx="88" cy="490" r="15" fill="white" stroke="#222" stroke-width="1.6"/>
<line x1="88" y1="505" x2="88" y2="546" stroke="#222" stroke-width="1.6"/>
<line x1="62" y1="520" x2="114" y2="520" stroke="#222" stroke-width="1.6"/>
<line x1="88" y1="546" x2="65" y2="572" stroke="#222" stroke-width="1.6"/>
<line x1="88" y1="546" x2="111" y2="572" stroke="#222" stroke-width="1.6"/>
<text x="88" y="590" text-anchor="middle" font-family="Arial,sans-serif" font-size="12" font-weight="bold" fill="#111">Investor</text>
<text x="88" y="604" text-anchor="middle" font-family="Arial,sans-serif" font-size="10" fill="#555">(개인 투자자)</text>
<circle cx="872" cy="390" r="15" fill="white" stroke="#222" stroke-width="1.6"/>
<line x1="872" y1="405" x2="872" y2="446" stroke="#222" stroke-width="1.6"/>
<line x1="846" y1="420" x2="898" y2="420" stroke="#222" stroke-width="1.6"/>
<line x1="872" y1="446" x2="849" y2="472" stroke="#222" stroke-width="1.6"/>
<line x1="872" y1="446" x2="895" y2="472" stroke="#222" stroke-width="1.6"/>
<text x="872" y="490" text-anchor="middle" font-family="Arial,sans-serif" font-size="12" font-weight="bold" fill="#111">Administrator</text>
<circle cx="872" cy="180" r="15" fill="white" stroke="#999" stroke-width="1.6" stroke-dasharray="5 2"/>
<line x1="872" y1="195" x2="872" y2="236" stroke="#999" stroke-width="1.6" stroke-dasharray="5 2"/>
<line x1="846" y1="210" x2="898" y2="210" stroke="#999" stroke-width="1.6" stroke-dasharray="5 2"/>
<line x1="872" y1="236" x2="849" y2="262" stroke="#999" stroke-width="1.6" stroke-dasharray="5 2"/>
<line x1="872" y1="236" x2="895" y2="262" stroke="#999" stroke-width="1.6" stroke-dasharray="5 2"/>
<text x="872" y="280" text-anchor="middle" font-family="Arial,sans-serif" font-size="12" font-weight="bold" fill="#777">Bank API</text>
<text x="872" y="294" text-anchor="middle" font-family="Arial,sans-serif" font-size="10" fill="#999">(External)</text>
<circle cx="872" cy="620" r="15" fill="white" stroke="#999" stroke-width="1.6" stroke-dasharray="5 2"/>
<line x1="872" y1="635" x2="872" y2="676" stroke="#999" stroke-width="1.6" stroke-dasharray="5 2"/>
<line x1="846" y1="650" x2="898" y2="650" stroke="#999" stroke-width="1.6" stroke-dasharray="5 2"/>
<line x1="872" y1="676" x2="849" y2="702" stroke="#999" stroke-width="1.6" stroke-dasharray="5 2"/>
<line x1="872" y1="676" x2="895" y2="702" stroke="#999" stroke-width="1.6" stroke-dasharray="5 2"/>
<text x="872" y="720" text-anchor="middle" font-family="Arial,sans-serif" font-size="12" font-weight="bold" fill="#777">Blockchain</text>
<text x="872" y="734" text-anchor="middle" font-family="Arial,sans-serif" font-size="10" fill="#999">(External)</text>
<line x1="116" y1="248" x2="350" y2="113" stroke="#333" stroke-width="1"/>
<line x1="116" y1="265" x2="227" y2="248" stroke="#333" stroke-width="1"/>
<line x1="116" y1="272" x2="220" y2="315" stroke="#333" stroke-width="1"/>
<line x1="116" y1="280" x2="217" y2="449" stroke="#333" stroke-width="1"/>
<line x1="116" y1="286" x2="215" y2="516" stroke="#333" stroke-width="1"/>
<line x1="116" y1="295" x2="345" y2="620" stroke="#333" stroke-width="1"/>
<line x1="116" y1="480" x2="350" y2="116" stroke="#333" stroke-width="1"/>
<line x1="116" y1="490" x2="480" y2="382" stroke="#333" stroke-width="1"/>
<line x1="116" y1="498" x2="487" y2="449" stroke="#333" stroke-width="1"/>
<line x1="116" y1="506" x2="479" y2="516" stroke="#333" stroke-width="1"/>
<line x1="116" y1="514" x2="345" y2="620" stroke="#333" stroke-width="1"/>
<line x1="844" y1="400" x2="701" y2="315" stroke="#333" stroke-width="1"/>
<line x1="844" y1="430" x2="718" y2="700" stroke="#333" stroke-width="1"/>
<line x1="844" y1="200" x2="455" y2="516" stroke="#999" stroke-width="1" stroke-dasharray="6 3"/>
<line x1="844" y1="628" x2="709" y2="449" stroke="#999" stroke-width="1" stroke-dasharray="6 3"/>
<line x1="844" y1="638" x2="717" y2="516" stroke="#999" stroke-width="1" stroke-dasharray="6 3"/>
<line x1="465" y1="127" x2="465" y2="144" stroke="#555" stroke-width="1.1" stroke-dasharray="5 3" marker-end="url(#arr)"/>
<text x="474" y="139" font-family="Arial,sans-serif" font-size="9" fill="#555">«extend»</text>
<line x1="424" y1="182" x2="374" y2="228" stroke="#555" stroke-width="1.1" stroke-dasharray="5 3" marker-end="url(#arr)"/>
<text x="366" y="208" font-family="Arial,sans-serif" font-size="9" fill="#555">«include»</text>
<line x1="412" y1="184" x2="368" y2="295" stroke="#555" stroke-width="1.1" stroke-dasharray="5 3" marker-end="url(#arr)"/>
<line x1="408" y1="185" x2="358" y2="429" stroke="#555" stroke-width="1.1" stroke-dasharray="5 3" marker-end="url(#arr)"/>
<line x1="405" y1="186" x2="352" y2="496" stroke="#555" stroke-width="1.1" stroke-dasharray="5 3" marker-end="url(#arr)"/>
<line x1="526" y1="182" x2="560" y2="295" stroke="#555" stroke-width="1.1" stroke-dasharray="5 3" marker-end="url(#arr)"/>
<text x="528" y="240" font-family="Arial,sans-serif" font-size="9" fill="#555">«include»</text>
<line x1="530" y1="183" x2="565" y2="362" stroke="#555" stroke-width="1.1" stroke-dasharray="5 3" marker-end="url(#arr)"/>
<line x1="532" y1="184" x2="568" y2="429" stroke="#555" stroke-width="1.1" stroke-dasharray="5 3" marker-end="url(#arr)"/>
<line x1="533" y1="185" x2="570" y2="496" stroke="#555" stroke-width="1.1" stroke-dasharray="5 3" marker-end="url(#arr)"/>
<line x1="465" y1="186" x2="465" y2="599" stroke="#555" stroke-width="1.1" stroke-dasharray="5 3" marker-end="url(#arr)"/>
<line x1="535" y1="185" x2="580" y2="680" stroke="#555" stroke-width="1.1" stroke-dasharray="5 3" marker-end="url(#arr)"/>
<line x1="335" y1="269" x2="335" y2="361" stroke="#555" stroke-width="1.1" stroke-dasharray="5 3" marker-end="url(#arr)"/>
<text x="342" y="318" font-family="Arial,sans-serif" font-size="9" fill="#555">«include»</text>
<line x1="335" y1="403" x2="335" y2="428" stroke="#555" stroke-width="1.1" stroke-dasharray="5 3" marker-end="url(#arr)"/>
<text x="342" y="419" font-family="Arial,sans-serif" font-size="9" fill="#555">«include»</text>
<line x1="335" y1="470" x2="335" y2="495" stroke="#555" stroke-width="1.1" stroke-dasharray="5 3" marker-end="url(#arr)"/>
<text x="342" y="486" font-family="Arial,sans-serif" font-size="9" fill="#555">«include»</text>
<line x1="598" y1="403" x2="598" y2="428" stroke="#555" stroke-width="1.1" stroke-dasharray="5 3" marker-end="url(#arr)"/>
<text x="606" y="419" font-family="Arial,sans-serif" font-size="9" fill="#555">«include»</text>
<rect x="215" y="770" width="500" height="52" rx="5" fill="white" stroke="#ccc" stroke-width="0.8"/>
<line x1="230" y1="790" x2="268" y2="790" stroke="#333" stroke-width="1"/>
<text x="276" y="794" font-family="Arial,sans-serif" font-size="10" fill="#333">Association</text>
<line x1="348" y1="790" x2="386" y2="790" stroke="#555" stroke-width="1.1" stroke-dasharray="5 3" marker-end="url(#arr)"/>
<text x="394" y="794" font-family="Arial,sans-serif" font-size="10" fill="#333">include / extend</text>
<line x1="230" y1="812" x2="268" y2="812" stroke="#999" stroke-width="1" stroke-dasharray="6 3"/>
<text x="276" y="816" font-family="Arial,sans-serif" font-size="10" fill="#777">External system</text>
<rect x="348" y="805" width="12" height="12" rx="2" fill="#dbeafe" stroke="#1d6fad" stroke-width="0.8"/>
<text x="366" y="816" font-family="Arial,sans-serif" font-size="10" fill="#333">Merchant UC</text>
<rect x="438" y="805" width="12" height="12" rx="2" fill="#d1fae5" stroke="#1a8050" stroke-width="0.8"/>
<text x="456" y="816" font-family="Arial,sans-serif" font-size="10" fill="#333">Investor UC</text>
<rect x="524" y="805" width="12" height="12" rx="2" fill="#fde8d0" stroke="#b05a10" stroke-width="0.8"/>
<text x="542" y="816" font-family="Arial,sans-serif" font-size="10" fill="#333">Admin UC</text>
</svg>
